<?xml version="1.0" encoding="utf-8"?><svg xmlns="http://www.w3.org/2000/svg" xmlns:xlink="http://www.w3.org/1999/xlink" width="1348" height="634" preserveAspectRatio="xMidYMid" viewBox="0 0 1348 634" style="z-index:1;margin-right:-2px;display:block;background-repeat-y:initial;background-repeat-x:initial;background-color:rgb(241, 242, 243);animation-play-state:paused" ><g transform="translate(674,317) scale(1,1) translate(-674,-317)" style="transform:matrix(1, 0, 0, 1, 0, 0);animation-play-state:paused" ><linearGradient id="lg-0.5325509345620312" x1="0" x2="1" y1="0" y2="0" style="animation-play-state:paused" ><stop stop-color="#eb5401" offset="0" style="animation-play-state:paused" ></stop>

  
<stop stop-color="#efb52b" offset="1" style="animation-play-state:paused" ></stop></linearGradient>
<path d="M 0 0 L 0 550.254 Q 224.667 581.227 449.333 536.566 T 898.667 246.874 T 1348 195.051 L 1348 0 Z" fill="url(#lg-0.5325509345620312)" opacity="0.4" style="opacity:0.4;animation-play-state:paused" ></path>
<path d="M 0 0 L 0 434.604 Q 224.667 492.74 449.333 446.142 T 898.667 308.739 T 1348 290.753 L 1348 0 Z" fill="url(#lg-0.5325509345620312)" opacity="0.4" style="opacity:0.4;animation-play-state:paused" ></path>
<path d="M 0 0 L 0 481.413 Q 224.667 426.307 449.333 397.785 T 898.667 346.072 T 1348 233.515 L 1348 0 Z" fill="url(#lg-0.5325509345620312)" opacity="0.4" style="opacity:0.4;animation-play-state:paused" ></path>
<path d="M 0 0 L 0 442.026 Q 224.667 453.805 449.333 424.814 T 898.667 357.417 T 1348 341.743 L 1348 0 Z" fill="url(#lg-0.5325509345620312)" opacity="0.4" style="opacity:0.4;animation-play-state:paused" ></path></g></svg>